<?xml version="1.0" encoding="UTF-8"?> <svg xmlns="http://www.w3.org/2000/svg" version="1.2" viewBox="0 0 1600 817" width="1600" height="817"><defs><clipPath id="cp1"><path d="m-1784.19-55.77h5264.39v872h-5264.39z"></path></clipPath><linearGradient id="P" gradientUnits="userSpaceOnUse"></linearGradient><linearGradient id="g1" x1="1081.6" y1="153.3" x2="1302.7" y2="420.3" href="#P"><stop stop-color="#bca8f8"></stop><stop offset="1" stop-color="#28afea" stop-opacity=".6"></stop></linearGradient><linearGradient id="g2" x1="1109.7" y1="578.3" x2="1456.5" y2="997.1" href="#P"><stop stop-color="#bca8f8"></stop><stop offset="1" stop-color="#28afea" stop-opacity=".6"></stop></linearGradient><linearGradient id="g3" x1="1368.6" y1="273.4" x2="1211" y2="460.9" href="#P"><stop stop-color="#311f6e" stop-opacity=".8"></stop><stop offset="1" stop-color="#ab8ad3"></stop></linearGradient><linearGradient id="g4" x1="1447.8" y1="172.6" x2="1324.8" y2="317.2" href="#P"><stop stop-color="#af94de"></stop><stop offset="1" stop-color="#66b7ed"></stop></linearGradient><linearGradient id="g5" x1="-792856" y1="3644440" x2="-814269" y2="3624270" href="#P"><stop stop-color="#af94de"></stop><stop offset="1" stop-color="#66b7ed"></stop></linearGradient><linearGradient id="g6" x1="-1118380" y1="5129550" x2="-1148520" y2="5101150" href="#P"><stop stop-color="#af94de" stop-opacity=".8"></stop><stop offset="1" stop-color="#66b7ed" stop-opacity=".8"></stop></linearGradient><linearGradient id="g7" x1="1219.9" y1="725.3" x2="1234.6" y2="367.9" href="#P"><stop stop-color="#af94de"></stop><stop offset="1" stop-color="#bce4ff"></stop></linearGradient><linearGradient id="g8" x1="652.6" y1="-44.7" x2="382.3" y2="-355.1" href="#P"><stop stop-color="#bca8f8"></stop><stop offset="1" stop-color="#28afea" stop-opacity=".6"></stop></linearGradient></defs><style>.a{fill:#fff}.b{opacity:.4;fill:url(#g1)}.c{opacity:.4;fill:url(#g2)}.d{fill:url(#g3)}.e{opacity:.8;fill:url(#g4)}.f{opacity:.4;fill:url(#g5)}.g{opacity:.4;display:none;fill:url(#g6)}.h{opacity:.8;fill:url(#g7)}.i{opacity:.4;display:none;fill:url(#g8)}</style><path class="a" d="m-24-55.8h1744v872h-1744z"></path><g clip-path="url(#cp1)"><path class="b" d="m1066.6 670c-4 2.6-8.7 4-13.4 3.8-4.8-0.1-9.4-1.8-13.1-4.7-30-24-56-52.5-77.3-84.5-26.7-40.3-45.3-85.5-54.6-133-9.3-47.5-9.2-96.3 0.4-143.8 9.6-47.4 28.5-92.5 55.5-132.7 27-40.1 61.7-74.6 102-101.3 40.4-26.9 85.6-45.4 133.2-54.8 47.5-9.3 96.4-9.2 143.9 0.4 47.4 9.6 92.6 28.4 132.7 55.5 40.2 27 74.7 61.7 101.5 102 21.2 32 37.3 67.1 47.8 104 1.2 4.6 0.9 9.5-0.8 13.9-1.7 4.4-4.7 8.2-8.7 10.8l-132.8 88.1c-21.3 14.1-72.2-22.7-78.5-47.5-3.9-15-10.2-29.2-18.8-42.1-10-15.1-23-28.2-38.1-38.4-15.1-10.2-32.1-17.2-50-20.9-17.8-3.6-36.2-3.6-54.1-0.1-17.9 3.5-34.9 10.5-50.1 20.6-30.6 20.3-51.9 52-59.2 88.1-7.3 36 0 73.5 20.3 104.1 8.3 12.6 18.7 23.7 30.6 33 20.2 15.6 34.5 77.8 13.1 92z"></path><path class="c" d="m1086.2 1388.7c-6.2 4.2-13.6 6.3-21 6-7.5-0.2-14.7-2.8-20.5-7.4-47.1-37.6-88-82.3-121.2-132.4-42-63.3-71.2-134.2-85.7-208.7-14.6-74.5-14.4-151.1 0.6-225.5 15.1-74.4 44.6-145.2 87-208.2 42.4-63 96.8-117 160.1-159 63.3-42 134.2-71.2 208.8-85.8 74.5-14.6 151.3-14.4 225.7 0.6 74.5 15 145.3 44.6 208.3 87 63 42.4 117.1 96.8 159.1 160 33.3 50.2 58.6 105.2 74.9 163.2 2 7.2 1.6 14.8-1.1 21.7-2.6 7-7.5 12.9-13.7 17l-208.3 138.2c-33.4 22.1-113.2-35.7-123.2-74.5-6-23.5-16-45.8-29.4-66-15.8-23.8-36.1-44.3-59.8-60.3-23.7-15.9-50.3-27.1-78.3-32.7-28-5.7-56.9-5.8-85-0.3-28 5.5-54.7 16.5-78.5 32.3-48.1 31.9-81.5 81.6-93 138.2-11.4 56.5 0.1 115.3 32 163.4 13 19.7 29.2 37.2 47.9 51.6 31.7 24.6 54.2 122.2 20.6 144.5z"></path><path fill-rule="evenodd" class="d" d="m1368.6 158.8c29.7 12.3 56.6 30.3 79.4 53 22.7 22.8 40.7 49.7 53 79.4 12.3 29.7 18.6 61.5 18.6 93.7 0 32.1-6.3 63.9-18.6 93.6-12.3 29.7-30.3 56.7-53 79.4-22.8 22.7-49.7 40.8-79.4 53.1-29.7 12.3-61.5 18.6-93.7 18.6-32.1 0-63.9-6.3-93.6-18.6-29.7-12.3-56.7-30.3-79.4-53.1-22.7-22.7-40.8-49.7-53.1-79.4-12.3-29.7-18.6-61.5-18.6-93.6 0-32.2 6.3-64 18.6-93.7 12.3-29.7 30.4-56.7 53.1-79.4 22.7-22.7 49.7-40.7 79.4-53 29.7-12.3 61.5-18.6 93.6-18.6 32.2 0 64 6.3 93.7 18.6zm-28.6 291.1c17.3-17.2 27-40.6 27-65 0-24.4-9.7-47.8-27-65.1-17.3-17.3-40.7-27-65.1-27-24.4 0-47.8 9.7-65 27-17.3 17.3-27 40.7-27 65.1 0 24.4 9.7 47.8 27 65 17.2 17.3 40.6 27 65 27 24.4 0 47.8-9.7 65.1-27z"></path><path class="e" d="m1540.4 241.5c13.8 27.5 23.3 57 28.1 87.4 0.2 1.5 0.2 3-0.2 4.4-0.4 1.5-1 2.9-2 4-0.9 1.2-2.1 2.2-3.4 2.9-1.3 0.7-2.8 1.1-4.3 1.3l-128.6 14.1c-2.7 0.4-5.5-0.3-7.7-1.9-2.3-1.7-3.8-4.1-4.3-6.8-2.6-13.2-6.9-25.9-12.9-38-11.7-23.5-29.5-43.6-51.6-58-22-14.5-47.4-22.9-73.7-24.4-2.8-0.2-5.4-1.3-7.4-3.3-2-2-3.1-4.6-3.3-7.4l-3.3-129.2c0-1.5 0.3-2.9 0.9-4.3 0.5-1.4 1.3-2.7 2.4-3.7 1-1.1 2.3-1.9 3.6-2.5 1.4-0.6 2.9-0.9 4.4-0.9 54.9 1 108.4 17.1 154.8 46.4 46.4 29.3 83.9 70.8 108.5 119.9z"></path><path class="f" d="m1491.1 885.7l-93.3-216.4c-1.1-2.3-1.7-4.9-1.7-7.4-0.1-2.6 0.3-5.2 1.2-7.6 1-2.4 2.4-4.6 4.1-6.5 1.8-1.9 4-3.4 6.3-4.4 37.8-18.8 70.7-46.2 96.1-79.9 25.3-33.8 42.5-73 50-114.5 0.9-5 3.7-9.6 7.7-12.7 4.1-3.1 9.1-4.6 14.2-4.2l235.3 21.4c2.8 0.2 5.4 1 7.8 2.3 2.5 1.3 4.6 3.1 6.3 5.3 1.7 2.1 3 4.6 3.7 7.2 0.8 2.6 1 5.4 0.7 8.1-12.5 88-46.1 171.6-98.1 243.7-51.9 72-120.6 130.4-200.1 170.1-4.5 1.9-9 4.5-13.5 6.4-5 2.1-10.6 2.1-15.6 0.1-5-2.1-9-6-11.1-11z"></path><path class="g" d="m-195.3 611l-131.4-304.5c-1.5-3.4-2.3-6.9-2.5-10.6-0.1-3.6 0.6-7.2 1.9-10.6 1.3-3.4 3.2-6.5 5.7-9.1 2.5-2.7 5.5-4.8 8.9-6.2 53.2-26.5 99.4-65.1 135.1-112.6 35.7-47.5 59.9-102.7 70.5-161.1 1.3-7.1 5.2-13.4 10.9-17.8 5.7-4.4 12.8-6.6 20-6l331.2 30.1c3.8 0.4 7.6 1.5 11 3.3 3.4 1.9 6.4 4.3 8.8 7.4 2.4 3 4.2 6.4 5.3 10.2 1 3.7 1.3 7.6 0.8 11.4-17.5 123.8-64.9 241.5-138 343-73.1 101.4-169.7 183.6-281.6 239.4-6.3 2.8-12.7 6.4-19 9.1-7 2.9-15 3-22 0.1-7.1-2.9-12.7-8.5-15.6-15.5z"></path><path class="h" d="m1132.9 632.6l61.6-113.6c1.4-2.4 3.6-4.2 6.2-5.2 2.6-0.9 5.5-0.8 8 0.2 23.2 10.5 48.5 14.9 73.8 12.9 2.8-0.3 5.6 0.5 7.8 2.3 2.3 1.7 3.7 4.2 4.2 7l19.7 127.8c0.3 1.4 0.2 2.9-0.2 4.4-0.3 1.4-1 2.7-1.9 3.9-0.9 1.2-2 2.1-3.3 2.9-1.3 0.7-2.7 1.2-4.1 1.4-57.2 6.5-115-3.5-166.6-28.9-1.4-0.6-2.6-1.4-3.7-2.5-1-1.2-1.8-2.5-2.3-3.9-0.5-1.4-0.7-2.9-0.5-4.4 0.1-1.5 0.6-3 1.3-4.3z"></path><path class="i" d="m655.3-658.4c4.6-3.3 10.1-5 15.7-4.9 5.7 0 11.2 1.8 15.7 5.2 36.3 27.6 68.1 60.6 94.2 98 33 47 56.3 100.1 68.8 156.2 12.4 56.1 13.7 114.1 3.7 170.8-10 56.6-31 110.6-62 159.1-30.9 48.5-71 90.4-118.1 123.3-47.1 33-100.3 56.4-156.4 68.9-56.2 12.5-114.2 13.7-170.8 3.8-56.7-10-110.8-31-159.3-61.9-48.5-30.9-90.4-71.1-123.4-118.2-26.1-37.3-46.3-78.5-59.8-122-1.6-5.4-1.4-11.2 0.5-16.5 1.9-5.4 5.4-9.9 10-13.1l155.1-108.5c24.8-17.4 86.3 24.8 94.6 54 5 17.7 12.9 34.4 23.5 49.5 12.4 17.7 28.2 32.8 46.4 44.4 18.2 11.7 38.6 19.6 59.9 23.4 21.3 3.7 43.1 3.2 64.3-1.4 21.1-4.7 41.1-13.5 58.8-25.9 35.8-25.1 60.1-63.4 67.7-106.4 7.6-43-2.1-87.2-27.2-123-10.2-14.7-22.8-27.6-37.2-38.2-24.5-18-43.3-91.4-18.3-108.9z"></path></g></svg> 